<svg xmlns="http://www.w3.org/2000/svg" viewBox="0 0 439.48 439.48" width="512" height="512"><path fill="#f2f2f2" d="M133.19 213.8l-25.57 52.3-22.25-46.52 25.25-54.43z"/><path fill="#999" d="M155.09 261.02l19.553 47.08v24.667l1.334 22.666L82.12 363H20.17v-2.86l65.2-140.56 22.25 11.57 25.57-17.35z"/><path fill="#b3b3b3" d="M107.62 231.15l53.023 76.283-5.553-46.413-21.9-47.22z"/><path fill="#f2f2f2" d="M332.61 231.15l17.24 24.59-18.74 37.027-17.01-35.217zm-108-120l42.341 85.768-2.974 48.515-84-.666 14.633-67.617-.5-.23z"/><path fill="#999" d="M415.977 359.433L423.06 363H358.1l-72.123-8.233-6-44.667 21.133-34.03 12.99-18.52 17.01 15.59 18.74-17.4z"/><path fill="#b3b3b3" d="M317.57 311.54l9.74-7.03L358.1 363H82.12l44.99-85.49 15.23 11 .01-.01 12.74-27.48 39.02-84.1.5.23 9 30 31.5-27 32.77 24.27 33.23 71.65z"/><path fill="#ccc" d="M235.11 180.15l1.843 48.266 22.157 55.234 9-9 28.84 51.262 20.62-14.372-50.619-114.622z"/><path fill="#999" d="M142.35 288.5l36.293 26.933L203.61 207.15l-9.5-30.23"/><path fill="#b3b3b3" d="M331.11 273.14L379.977 363h45.333l-75.46-107.26z"/><path d="M339.35 60.16c27.75 0 50.25 22.49 50.25 50.25 0 27.75-22.5 50.24-50.25 50.24s-50.24-22.49-50.24-50.24c0-27.76 22.49-50.25 50.24-50.25z" fill="#eab932"/><path d="M389.6 110.41c0 27.75-22.5 50.24-50.25 50.24-4.47 0-8.81-.58-12.94-1.68-8.21-7.91-13.31-19.01-13.31-31.31 0-24.03 19.48-43.5 43.5-43.5 12.3 0 23.4 5.1 31.32 13.31 1.1 4.13 1.68 8.47 1.68 12.94z" fill="#ffd039"/><path d="M439.48 379.32H0c0-4.43 1.13-8.59 3.12-12.22 1.17-2.14 2.64-4.09 4.35-5.8a25.39 25.39 0 0 1 18.03-7.47h388.48c9.65 0 18.05 5.36 22.38 13.27a25.33 25.33 0 0 1 3.12 12.22z" fill="#0fbc30"/><path d="M439.48 379.32H0c0-4.43 1.13-8.59 3.12-12.22h433.24a25.33 25.33 0 0 1 3.12 12.22z" fill="#07a521"/></svg>